<svg width="473" height="92" viewBox="0 0 473 92" fill="none" xmlns="http://www.w3.org/2000/svg">
<g clip-path="url(#clip0_4033_6)">
<path d="M142.976 78.96C136.384 78.96 131.136 76.944 127.232 72.912C123.328 68.816 121.184 63.248 120.8 56.208C120.736 55.376 120.704 54.32 120.704 53.04C120.704 51.696 120.736 50.608 120.8 49.776C121.056 45.232 122.112 41.264 123.968 37.872C125.824 34.416 128.352 31.76 131.552 29.904C134.816 28.048 138.624 27.12 142.976 27.12C147.84 27.12 151.904 28.144 155.168 30.192C158.496 32.24 161.024 35.152 162.752 38.928C164.48 42.704 165.344 47.12 165.344 52.176V53.808C165.344 54.512 165.12 55.056 164.672 55.44C164.288 55.824 163.776 56.016 163.136 56.016H129.92C129.92 56.08 129.92 56.208 129.92 56.4C129.92 56.592 129.92 56.752 129.92 56.88C130.048 59.504 130.624 61.968 131.648 64.272C132.672 66.512 134.144 68.336 136.064 69.744C137.984 71.152 140.288 71.856 142.976 71.856C145.28 71.856 147.2 71.504 148.736 70.8C150.272 70.096 151.52 69.328 152.48 68.496C153.44 67.6 154.08 66.928 154.4 66.48C154.976 65.648 155.424 65.168 155.744 65.04C156.064 64.848 156.576 64.752 157.28 64.752H161.888C162.528 64.752 163.04 64.944 163.424 65.328C163.872 65.648 164.064 66.128 164 66.768C163.936 67.728 163.424 68.912 162.464 70.32C161.504 71.664 160.128 73.008 158.336 74.352C156.544 75.696 154.368 76.816 151.808 77.712C149.248 78.544 146.304 78.96 142.976 78.96ZM129.92 49.392H156.224V49.104C156.224 46.224 155.68 43.664 154.592 41.424C153.568 39.184 152.064 37.424 150.08 36.144C148.096 34.8 145.728 34.128 142.976 34.128C140.224 34.128 137.856 34.8 135.872 36.144C133.952 37.424 132.48 39.184 131.456 41.424C130.432 43.664 129.92 46.224 129.92 49.104V49.392ZM179.031 78C178.391 78 177.847 77.808 177.399 77.424C177.015 76.976 176.823 76.432 176.823 75.792V30.288C176.823 29.648 177.015 29.136 177.399 28.752C177.847 28.304 178.391 28.08 179.031 28.08H183.543C184.183 28.08 184.695 28.304 185.079 28.752C185.527 29.136 185.751 29.648 185.751 30.288V34.512C187.415 32.336 189.495 30.576 191.991 29.232C194.551 27.824 197.815 27.12 201.783 27.12C205.943 27.12 209.463 28.048 212.343 29.904C215.287 31.696 217.495 34.224 218.967 37.488C220.439 40.688 221.175 44.432 221.175 48.72V75.792C221.175 76.432 220.983 76.976 220.599 77.424C220.215 77.808 219.703 78 219.063 78H214.263C213.623 78 213.079 77.808 212.631 77.424C212.247 76.976 212.055 76.432 212.055 75.792V49.2C212.055 44.72 210.967 41.232 208.791 38.736C206.615 36.176 203.415 34.896 199.191 34.896C195.223 34.896 192.023 36.176 189.591 38.736C187.223 41.232 186.039 44.72 186.039 49.2V75.792C186.039 76.432 185.815 76.976 185.367 77.424C184.983 77.808 184.471 78 183.831 78H179.031ZM253.281 78.96C249.762 78.96 246.722 78.352 244.162 77.136C241.602 75.856 239.49 74.16 237.826 72.048C236.226 69.872 235.01 67.408 234.178 64.656C233.41 61.904 232.962 58.992 232.834 55.92C232.77 54.896 232.738 53.936 232.738 53.04C232.738 52.144 232.77 51.184 232.834 50.16C232.962 47.152 233.41 44.272 234.178 41.52C235.01 38.768 236.226 36.304 237.826 34.128C239.49 31.952 241.602 30.256 244.162 29.04C246.722 27.76 249.762 27.12 253.281 27.12C257.058 27.12 260.194 27.792 262.69 29.136C265.186 30.48 267.234 32.144 268.834 34.128V12.048C268.834 11.408 269.026 10.896 269.41 10.512C269.858 10.064 270.402 9.84 271.042 9.84H275.65C276.29 9.84 276.802 10.064 277.186 10.512C277.634 10.896 277.858 11.408 277.858 12.048V75.792C277.858 76.432 277.634 76.976 277.186 77.424C276.802 77.808 276.29 78 275.65 78H271.33C270.626 78 270.082 77.808 269.698 77.424C269.314 76.976 269.122 76.432 269.122 75.792V71.76C267.522 73.808 265.442 75.536 262.882 76.944C260.322 78.288 257.122 78.96 253.281 78.96ZM255.298 71.184C258.498 71.184 261.058 70.448 262.978 68.976C264.898 67.504 266.338 65.648 267.298 63.408C268.258 61.104 268.77 58.768 268.834 56.4C268.898 55.376 268.93 54.16 268.93 52.752C268.93 51.28 268.898 50.032 268.834 49.008C268.77 46.768 268.226 44.56 267.202 42.384C266.242 40.208 264.77 38.416 262.786 37.008C260.866 35.6 258.37 34.896 255.298 34.896C252.034 34.896 249.442 35.632 247.522 37.104C245.602 38.512 244.226 40.4 243.394 42.768C242.562 45.072 242.082 47.568 241.954 50.256C241.89 52.112 241.89 53.968 241.954 55.824C242.082 58.512 242.562 61.04 243.394 63.408C244.226 65.712 245.602 67.6 247.522 69.072C249.442 70.48 252.034 71.184 255.298 71.184ZM299.335 78C298.695 78 298.151 77.808 297.703 77.424C297.319 76.976 297.127 76.432 297.127 75.792V35.76H288.967C288.327 35.76 287.783 35.568 287.335 35.184C286.951 34.736 286.759 34.192 286.759 33.552V30.288C286.759 29.648 286.951 29.136 287.335 28.752C287.783 28.304 288.327 28.08 288.967 28.08H297.127V23.28C297.127 20.016 297.671 17.168 298.759 14.736C299.847 12.24 301.575 10.32 303.943 8.976C306.375 7.632 309.607 6.96 313.639 6.96H319.015C319.655 6.96 320.167 7.184 320.551 7.632C320.999 8.016 321.223 8.528 321.223 9.168V12.432C321.223 13.072 320.999 13.616 320.551 14.064C320.167 14.448 319.655 14.64 319.015 14.64H313.831C310.823 14.64 308.775 15.44 307.687 17.04C306.599 18.576 306.055 20.816 306.055 23.76V28.08H326.599V9.168C326.599 8.528 326.791 8.016 327.175 7.632C327.623 7.184 328.167 6.96 328.807 6.96H333.223C333.927 6.96 334.471 7.184 334.855 7.632C335.239 8.016 335.431 8.528 335.431 9.168V75.792C335.431 76.432 335.239 76.976 334.855 77.424C334.471 77.808 333.927 78 333.223 78H328.807C328.167 78 327.623 77.808 327.175 77.424C326.791 76.976 326.599 76.432 326.599 75.792V35.76H306.055V75.792C306.055 76.432 305.831 76.976 305.383 77.424C304.999 77.808 304.487 78 303.847 78H299.335ZM370.146 78.96C365.282 78.96 361.218 78.032 357.954 76.176C354.69 74.32 352.194 71.76 350.466 68.496C348.738 65.168 347.778 61.392 347.586 57.168C347.522 56.08 347.49 54.704 347.49 53.04C347.49 51.312 347.522 49.936 347.586 48.912C347.778 44.624 348.738 40.848 350.466 37.584C352.258 34.32 354.786 31.76 358.05 29.904C361.314 28.048 365.346 27.12 370.146 27.12C374.946 27.12 378.978 28.048 382.242 29.904C385.506 31.76 388.002 34.32 389.73 37.584C391.522 40.848 392.514 44.624 392.706 48.912C392.77 49.936 392.802 51.312 392.802 53.04C392.802 54.704 392.77 56.08 392.706 57.168C392.514 61.392 391.554 65.168 389.826 68.496C388.098 71.76 385.602 74.32 382.338 76.176C379.074 78.032 375.01 78.96 370.146 78.96ZM370.146 71.568C374.114 71.568 377.282 70.32 379.65 67.824C382.018 65.264 383.298 61.552 383.49 56.688C383.554 55.728 383.586 54.512 383.586 53.04C383.586 51.568 383.554 50.352 383.49 49.392C383.298 44.528 382.018 40.848 379.65 38.352C377.282 35.792 374.114 34.512 370.146 34.512C366.178 34.512 362.978 35.792 360.546 38.352C358.178 40.848 356.93 44.528 356.802 49.392C356.738 50.352 356.706 51.568 356.706 53.04C356.706 54.512 356.738 55.728 356.802 56.688C356.93 61.552 358.178 65.264 360.546 67.824C362.978 70.32 366.178 71.568 370.146 71.568ZM416.758 78C415.926 78 415.286 77.808 414.838 77.424C414.39 76.976 414.006 76.368 413.686 75.6L400.054 31.056C399.926 30.736 399.862 30.416 399.862 30.096C399.862 29.52 400.054 29.04 400.438 28.656C400.886 28.272 401.366 28.08 401.878 28.08H406.102C406.806 28.08 407.35 28.272 407.734 28.656C408.118 29.04 408.374 29.392 408.502 29.712L419.158 65.904L430.582 30.096C430.71 29.648 430.966 29.2 431.35 28.752C431.798 28.304 432.438 28.08 433.27 28.08H436.534C437.366 28.08 438.006 28.304 438.454 28.752C438.902 29.2 439.158 29.648 439.222 30.096L450.646 65.904L461.302 29.712C461.366 29.392 461.59 29.04 461.974 28.656C462.358 28.272 462.902 28.08 463.606 28.08H467.83C468.406 28.08 468.886 28.272 469.27 28.656C469.654 29.04 469.846 29.52 469.846 30.096C469.846 30.416 469.782 30.736 469.654 31.056L456.022 75.6C455.83 76.368 455.478 76.976 454.966 77.424C454.518 77.808 453.846 78 452.95 78H449.206C448.374 78 447.67 77.808 447.094 77.424C446.582 76.976 446.23 76.368 446.038 75.6L434.902 41.232L423.766 75.6C423.51 76.368 423.126 76.976 422.614 77.424C422.102 77.808 421.398 78 420.502 78H416.758Z" fill="black"/>
<path d="M0 90H21.1978C29.5527 90 36.5327 84.0341 38.1619 76.1056C38.3657 75.2907 38.5818 73.3573 38.9151 70.3057C38.9266 70.2004 38.9378 70.0964 38.949 69.9938C39.1436 68.1981 39.297 66.7837 39.8246 64.8723C39.8853 64.6464 40.0975 63.8833 40.4613 62.8821C41.9104 58.859 44.2206 55.1594 44.4268 54.8358L44.5122 54.7003C48.0691 49.064 49.8641 46.2195 53.4673 43.6455C57.2388 40.9532 61.1012 39.7566 63.9813 39.2255C67.3328 38.6072 70.423 38.4289 72.2963 38.383H91V-0.401543H69.8022C60.8271 -0.401543 53.4386 6.48289 52.5654 15.2893C52.4897 15.6875 52.4156 16.0786 52.3428 16.4627C49.4049 31.9562 48.6103 36.1471 40.4249 43.615C32.331 50.9994 21.9784 51.2099 21.2397 51.2155C21.2257 51.2154 21.2117 51.2154 21.1978 51.2154H0V90Z" fill="url(#paint0_linear_4033_6)"/>
</g>
<defs>
<linearGradient id="paint0_linear_4033_6" x1="14.625" y1="78.9324" x2="81.6437" y2="-16.0119" gradientUnits="userSpaceOnUse">
<stop/>
</linearGradient>
<clipPath id="clip0_4033_6">
<rect width="473" height="92" fill="white"/>
</clipPath>
</defs>
</svg>
