<svg width="288" height="288" viewBox="0 0 288 288" fill="none" xmlns="http://www.w3.org/2000/svg">
<g clip-path="url(#clip0_4038_2)">
<path d="M0 288L67.0874 288C93.5293 288 115.62 269.119 120.776 244.027C121.421 241.447 122.105 235.329 123.16 225.671C123.196 225.337 123.232 225.009 123.267 224.684C123.883 219.001 124.368 214.524 126.038 208.475C126.23 207.76 126.902 205.345 128.053 202.176C132.64 189.444 139.951 177.735 140.603 176.711L140.874 176.282C152.131 158.444 157.812 149.442 169.215 141.296C181.151 132.775 193.375 128.988 202.49 127.307C213.097 125.35 222.877 124.786 228.806 124.641L288 124.641L288 1.89404L220.913 1.89403C192.508 1.89403 169.124 23.6821 166.361 51.5529C166.121 52.8133 165.887 54.0509 165.656 55.2666C156.359 104.301 153.844 117.565 127.938 141.199C102.322 164.569 69.5581 165.236 67.2201 165.253C67.1759 165.253 67.1317 165.253 67.0874 165.253L1.07309e-05 165.253L0 288Z" fill="url(#paint0_linear_4038_2)"/>
</g>
<defs>
<linearGradient id="paint0_linear_4038_2" x1="46.2857" y1="252.973" x2="258.389" y2="-47.5103" gradientUnits="userSpaceOnUse">
<stop stop-color="white"/>
</linearGradient>
<clipPath id="clip0_4038_2">
<rect width="288" height="288" fill="white"/>
</clipPath>
</defs>
</svg>
