<svg width="288" height="288" viewBox="0 0 288 288" fill="none" xmlns="http://www.w3.org/2000/svg">
<rect width="288" height="288" rx="42" fill="white"/>
<path d="M230.65 156.871L189.842 156.871C171.434 156.871 156.493 171.914 156.493 190.448L156.493 197.958C156.493 216.492 171.434 231.535 189.842 231.535L230.65 231.535L230.65 156.871Z" fill="white"/>
<path d="M55.4647 131.015L96.2728 131.015C114.681 131.015 129.622 115.971 129.622 97.4374L129.622 89.9274C129.622 71.3935 114.681 56.3501 96.2728 56.3501L55.4647 56.3501L55.4647 131.015Z" fill="white"/>
<path d="M230.65 56.3501L189.842 56.3501C173.758 56.3501 160.32 67.835 157.184 83.0983C156.792 84.6672 156.376 88.3891 155.734 94.2638C155.712 94.4666 155.69 94.6667 155.669 94.8643C155.294 98.3212 154.999 101.044 153.983 104.724C153.866 105.159 153.458 106.628 152.757 108.555C149.968 116.3 145.52 123.422 145.123 124.045L144.959 124.306C138.111 135.157 134.656 140.632 127.719 145.588C120.459 150.771 113.023 153.074 107.479 154.097C101.027 155.287 95.0777 155.63 91.4714 155.718L55.4647 155.718L55.4647 230.383L96.2728 230.383C113.551 230.383 127.775 217.13 129.456 200.177C129.601 199.41 129.744 198.657 129.884 197.918C135.54 168.091 137.07 160.023 152.827 145.646C168.409 131.431 188.339 131.025 189.761 131.015C189.788 131.015 189.815 131.015 189.842 131.015L230.65 131.015L230.65 56.3501Z" fill="url(#paint0_linear_4033_2)"/>
<path d="M251 36L200.917 36C181.178 36 164.686 50.0952 160.837 68.8274C160.356 70.7528 159.845 75.3205 159.058 82.5305C159.031 82.7794 159.004 83.0249 158.978 83.2675C158.518 87.51 158.156 90.8516 156.909 95.3676C156.766 95.9013 156.264 97.7042 155.405 100.07C151.981 109.575 146.523 118.316 146.036 119.08L145.834 119.4C137.43 132.717 133.189 139.437 124.676 145.519C115.765 151.88 106.64 154.707 99.8353 155.962C91.9169 157.423 84.616 157.844 80.19 157.952L36 157.952L36 249.586L86.0826 249.586C107.288 249.586 124.744 233.321 126.807 212.514C126.986 211.573 127.161 210.649 127.333 209.742C134.274 173.136 136.151 163.235 155.491 145.591C174.614 128.144 199.073 127.647 200.818 127.634C200.851 127.634 200.884 127.634 200.917 127.634L251 127.634L251 36Z" fill="url(#paint1_linear_4033_2)"/>
<defs>
<linearGradient id="paint0_linear_4033_2" x1="202.495" y1="77.6564" x2="73.4767" y2="260.435" gradientUnits="userSpaceOnUse">
<stop stop-color="white"/>
</linearGradient>
<linearGradient id="paint1_linear_4033_2" x1="216.446" y1="62.1486" x2="58.1056" y2="286.468" gradientUnits="userSpaceOnUse">
<stop/>
</linearGradient>
</defs>
</svg>
